<?xml version="1.0" encoding="UTF-8"?>
<!DOCTYPE svg PUBLIC "-//W3C//DTD SVG 1.1//EN" "http://www.w3.org/Graphics/SVG/1.1/DTD/svg11.dtd">
<!-- Creator: CorelDRAW -->
<svg xmlns="http://www.w3.org/2000/svg" xml:space="preserve" width="63.4998mm" height="63.4998mm" version="1.1" style="shape-rendering:geometricPrecision; text-rendering:geometricPrecision; image-rendering:optimizeQuality; fill-rule:evenodd; clip-rule:evenodd"
viewBox="0 0 6349.98 6349.98"
 xmlns:xlink="http://www.w3.org/1999/xlink"
 xmlns:xodm="http://www.corel.com/coreldraw/odm/2003">
 <defs>
  <style type="text/css">
   <![CDATA[
    .str0 {stroke:white;stroke-width:169.33;stroke-miterlimit:22.9256}
    .str1 {stroke:white;stroke-width:67.73;stroke-miterlimit:22.9256}
    .fil0 {fill:none}
    .fil1 {fill:white; fill-rule:white}
   ]]>
  </style>
 </defs>
 <g id="Layer_x0020_1">
  <metadata id="CorelCorpID_0Corel-Layer"/>
  <g id="_942996944">
   <path class="fil0 str0" d="M4744.83 1012.7c247.71,175.5 464.31,392.03 639.8,639.75 -299.34,440.43 -474.35,972.18 -474.35,1544.84 0,572.65 174.99,1104.4 474.33,1544.81 -175.5,247.71 -392.03,464.31 -639.75,639.8 -440.43,-299.34 -972.18,-474.35 -1544.84,-474.35 -572.65,0 -1104.4,174.99 -1544.81,474.33 -247.71,-175.5 -464.31,-392.03 -639.8,-639.75 299.34,-440.43 474.35,-972.18 474.35,-1544.84 0,-572.66 -175.01,-1104.41 -474.35,-1544.84 175.49,-247.72 392.09,-464.25 639.8,-639.75 440.41,299.34 972.16,474.33 1544.81,474.33 572.65,0 1104.4,-174.99 1544.81,-474.33z"/>
   <circle class="fil0 str0" cx="3200.02" cy="3197.3" r="3005.67"/>
   <circle class="fil0 str0" cx="3200.02" cy="3197.3" r="1706.04"/>
  </g>
  <path  class="fil1 str1" d="M2547.29 2130.78l1446.08 0 0 45.99c-108.63,3.4 -178.11,20.01 -208.02,49.82 -30.35,30.23 -45.3,100.92 -45.3,212.5l0 938.55c0,181.41 10.55,293.84 32.11,336.85 21.54,43.01 90.59,64.3 208.02,64.3l0 531.45 -44.86 0c-25.51,-122.64 -67.29,-221.86 -124.02,-296.81 -57.17,-75.38 -121.83,-125.2 -194.4,-150.75 -72.57,-25.12 -159.65,-37.9 -260.8,-37.9l-445.1 0c-194.82,0 -337.76,51.1 -429.24,153.3 -91.48,101.78 -146.02,212.5 -164.05,332.16l-44.86 0 0 -531.45c137.65,-11.5 249.37,-91.98 335.57,-241.03 86.2,-149.47 146.01,-332.16 179,-549.34 33.43,-217.18 50.14,-395.18 50.14,-534.43 0,-83.04 -10.55,-144.36 -32.11,-183.54 -21.54,-39.18 -47.05,-63.87 -76.52,-73.67 -29.47,-10.22 -90.16,-16.61 -181.64,-20.01l0 -45.99zm422.21 94.53c-21.54,493.13 -62.01,839.34 -122.26,1038.21 -59.82,198.87 -140.74,355.15 -241.9,469.28l646.08 0c114.79,0 183.84,-9.8 206.27,-29.39 22.87,-19.58 34.3,-83.03 34.3,-190.35l0 -1287.75 -522.49 0z"/>
 </g>
</svg>
